<?xml version="1.0" encoding="UTF-8"?>
<svg version="1.1" xmlns="http://www.w3.org/2000/svg" width="1124" height="559">
<path d="M0 0 C2.19014561 0.0056457 4.38028345 0.00846278 6.57043457 0.0110817 C27.76150861 0.04791306 48.67990557 0.51326312 69.71862793 3.31805801 C71.07215476 3.4872437 72.42583864 3.65517688 73.77966309 3.82196426 C105.97815613 7.82552036 137.75014693 14.62125487 168.71862793 24.31805801 C169.93066895 24.69688126 171.14270996 25.0757045 172.39147949 25.46600723 C240.45803141 46.97137265 304.01006601 81.3509783 358.99060059 126.89422989 C360.54949233 128.17869678 362.12343232 129.44484738 363.69909668 130.70868301 C370.45695586 136.13057292 376.80068298 141.91855553 383.12194824 147.83465958 C385.56705113 150.10628727 388.05343337 152.33208975 390.53112793 154.56805801 C395.47911404 159.10151869 400.27695289 163.76948054 405.03112793 168.50555801 C405.68895264 169.15879044 406.34677734 169.81202286 407.02453613 170.4850502 C410.8842585 174.35696373 414.55429532 178.3426807 418.12658691 182.48089981 C420.23228716 184.91080234 422.41192851 187.26888676 424.59362793 189.63055801 C429.51440095 195.03303321 434.14563283 200.62043382 438.71862793 206.31805801 C439.64252242 207.45004588 440.56703083 208.58153288 441.49206543 209.71258926 C499.20265539 280.60375612 538.19812705 366.39908473 564.71862793 550.31805801 C560.67184744 551.87178541 557.82015167 552.52557399 553.53112793 551.88055801 C550.28171956 551.406374 548.90397799 551.25627466 545.71862793 552.31805801 C545.05862793 551.98805801 544.39862793 551.65805801 543.71862793 551.31805801 C543.71862793 550.65805801 543.71862793 549.99805801 543.71862793 549.31805801 C546.68862793 548.32805801 549.65862793 547.33805801 552.71862793 546.31805801 C552.71862793 545.65805801 552.71862793 544.99805801 552.71862793 544.31805801 C550.51005738 544.46025365 548.30177806 544.60697648 546.09362793 544.75555801 C544.8638623 544.83676895 543.63409668 544.91797989 542.36706543 545.00165176 C538.76653999 545.25634942 538.76653999 545.25634942 535.44519043 545.91571426 C532.71862793 546.31805801 532.71862793 546.31805801 529.71862793 545.31805801 C527.72165552 545.11836077 525.72085094 544.95546548 523.71862793 544.81805801 C520.44492768 544.59339231 517.83914467 544.35823026 514.71862793 543.31805801 C514.71862793 542.65805801 514.71862793 541.99805801 514.71862793 541.31805801 C512.40862793 540.98805801 510.09862793 540.65805801 507.71862793 540.31805801 C507.71862793 538.66805801 507.71862793 537.01805801 507.71862793 535.31805801 C507.15015137 535.51141739 506.5816748 535.70477676 505.99597168 535.90399551 C502.31232021 537.14622857 498.66911988 538.33104373 494.90612793 539.31805801 C491.74481269 540.07719163 491.74481269 540.07719163 489.84362793 541.94305801 C486.41111861 544.16409346 482.69641457 543.5475457 478.71862793 543.31805801 C478.38862793 542.32805801 478.05862793 541.33805801 477.71862793 540.31805801 C476.68802246 540.55202286 476.68802246 540.55202286 475.63659668 540.79071426 C474.73554199 540.9853627 473.8344873 541.18001114 472.90612793 541.38055801 C472.01280762 541.57778458 471.1194873 541.77501114 470.19909668 541.97821426 C467.71862793 542.31805801 467.71862793 542.31805801 464.71862793 541.31805801 C464.71862793 540.32805801 464.71862793 539.33805801 464.71862793 538.31805801 C464.05862793 538.64805801 463.39862793 538.97805801 462.71862793 539.31805801 C460.83711324 539.34378939 458.95458895 539.30707781 457.07409668 539.23993301 C440.50575276 538.49285937 440.50575276 538.49285937 424.90612793 543.22430801 C422.71862793 544.31805801 422.71862793 544.31805801 419.71862793 544.31805801 C419.71862793 544.97805801 419.71862793 545.63805801 419.71862793 546.31805801 C407.44578387 550.44096656 396.20417218 551.43618506 383.28112793 551.25555801 C378.84954659 551.20151434 375.02356437 551.77051116 370.74597168 552.87665176 C367.73714328 553.53175313 364.78512009 553.37702902 361.71862793 553.31805801 C360.04568857 553.61832918 358.37877408 553.95363569 356.71862793 554.31805801 C353.27394903 554.77734853 349.83926009 555.21516191 346.37878418 555.53290176 C342.09866998 555.93883606 338.69351577 556.5991876 334.71862793 558.31805801 C329.11483497 559.58801426 323.55403583 559.43085293 317.84362793 559.38055801 C316.86909668 559.3760463 315.89456543 559.37153458 314.89050293 559.36688614 C312.49981359 559.35516707 310.10925353 559.33876021 307.71862793 559.31805801 C307.71862793 558.65805801 307.71862793 557.99805801 307.71862793 557.31805801 C306.60487793 557.64805801 305.49112793 557.97805801 304.34362793 558.31805801 C299.34312142 559.43996653 294.44459078 559.54366608 289.34362793 559.56805801 C288.14794189 559.58159317 288.14794189 559.58159317 286.92810059 559.59540176 C283.01769044 559.57543796 281.04165317 559.53340817 277.71862793 557.31805801 C275.39754124 556.60992987 273.06485646 555.93781649 270.71862793 555.31805801 C270.71862793 553.33805801 270.71862793 551.35805801 270.71862793 549.31805801 C272.03862793 548.65805801 273.35862793 547.99805801 274.71862793 547.31805801 C274.71862793 546.65805801 274.71862793 545.99805801 274.71862793 545.31805801 C273.72862793 544.98805801 272.73862793 544.65805801 271.71862793 544.31805801 C272.04862793 543.65805801 272.37862793 542.99805801 272.71862793 542.31805801 C273.37862793 542.31805801 274.03862793 542.31805801 274.71862793 542.31805801 C274.71862793 540.66805801 274.71862793 539.01805801 274.71862793 537.31805801 C273.32644043 538.02962051 273.32644043 538.02962051 271.90612793 538.75555801 C268.71862793 540.31805801 268.71862793 540.31805801 265.71862793 541.31805801 C265.71862793 541.97805801 265.71862793 542.63805801 265.71862793 543.31805801 C264.74925293 543.73055801 263.77987793 544.14305801 262.78112793 544.56805801 C259.93244077 545.78564204 257.10473859 547.04351154 254.28112793 548.31805801 C253.50897949 548.65321426 252.73683105 548.98837051 251.94128418 549.33368301 C250.00825612 550.18978683 248.10955601 551.12259398 246.21862793 552.06805801 C239.59260325 554.57997311 231.67928582 553.53162365 224.71862793 553.31805801 C225.04862793 553.97805801 225.37862793 554.63805801 225.71862793 555.31805801 C224.5816748 555.36704239 223.44472168 555.41602676 222.27331543 555.46649551 C213.59293751 555.87706031 205.19383816 556.52635242 196.63659668 558.11102676 C193.40366646 558.34040468 191.59258245 557.74706682 188.71862793 556.31805801 C188.71862793 555.65805801 188.71862793 554.99805801 188.71862793 554.31805801 C186.80050293 554.34899551 186.80050293 554.34899551 184.84362793 554.38055801 C179.75655776 554.38864557 174.76701323 553.9082659 169.71862793 553.31805801 C169.71862793 552.32805801 169.71862793 551.33805801 169.71862793 550.31805801 C168.72862793 549.65805801 167.73862793 548.99805801 166.71862793 548.31805801 C167.70862793 547.98805801 168.69862793 547.65805801 169.71862793 547.31805801 C168.9671277 544.04032297 168.9671277 544.04032297 165.71862793 542.31805801 C165.04930522 536.18259985 165.04930522 536.18259985 167.21862793 533.38055801 C167.71362793 533.02993301 168.20862793 532.67930801 168.71862793 532.31805801 C164.74108665 531.58471372 164.74108665 531.58471372 160.71862793 531.31805801 C160.71862793 531.97805801 160.71862793 532.63805801 160.71862793 533.31805801 C157.08862793 533.31805801 153.45862793 533.31805801 149.71862793 533.31805801 C149.71862793 532.65805801 149.71862793 531.99805801 149.71862793 531.31805801 C148.66675293 531.99868301 147.61487793 532.67930801 146.53112793 533.38055801 C143.81535784 534.95371752 143.01384819 535.34318314 139.78112793 535.06805801 C139.10050293 534.82055801 138.41987793 534.57305801 137.71862793 534.31805801 C137.38862793 535.30805801 137.05862793 536.29805801 136.71862793 537.31805801 C134.86315918 538.16180801 134.86315918 538.16180801 132.53112793 538.81805801 C125.59613147 540.78965903 125.59613147 540.78965903 120.20300293 545.27508926 C116.36063911 548.43476895 112.10332247 548.76600248 107.28112793 549.56805801 C106.33946777 549.74079239 105.39780762 549.91352676 104.4276123 550.09149551 C95.82635536 551.62114742 95.82635536 551.62114742 91.71862793 551.31805801 C91.05862793 550.65805801 90.39862793 549.99805801 89.71862793 549.31805801 C85.21439259 548.82846722 81.70134626 549.53810289 77.35534668 550.76337051 C70.39897489 552.54100438 63.55748503 553.09752828 56.40612793 553.50555801 C54.49452881 553.62181534 54.49452881 553.62181534 52.54431152 553.7404213 C48.93641033 553.95015619 45.32815437 554.13877165 41.71862793 554.31805801 C40.83416992 554.36623672 39.94971191 554.41441544 39.03845215 554.46405411 C31.41853208 554.84870183 25.90582608 555.06637287 19.71862793 550.31805801 C19.05862793 549.98805801 18.39862793 549.65805801 17.71862793 549.31805801 C17.71862793 547.00805801 17.71862793 544.69805801 17.71862793 542.31805801 C18.70862793 541.98805801 19.69862793 541.65805801 20.71862793 541.31805801 C20.38862793 540.65805801 20.05862793 539.99805801 19.71862793 539.31805801 C17.07862793 539.31805801 14.43862793 539.31805801 11.71862793 539.31805801 C11.71862793 539.97805801 11.71862793 540.63805801 11.71862793 541.31805801 C10.78965698 541.35564224 10.78965698 541.35564224 9.84191895 541.39398575 C6.98817905 541.51128459 4.13466352 541.63339387 1.28112793 541.75555801 C0.30724121 541.79487442 -0.66664551 541.83419083 -1.67004395 541.87469864 C-4.54228799 541.99957881 -7.41138794 542.14923542 -10.28137207 542.31805801 C-11.15938477 542.36849258 -12.03739746 542.41892715 -12.9420166 542.47089005 C-15.63445893 542.65108041 -15.63445893 542.65108041 -19.28137207 543.31805801 C-19.94137207 544.30805801 -20.60137207 545.29805801 -21.28137207 546.31805801 C-24.30090332 547.23212051 -24.30090332 547.23212051 -28.09387207 547.94305801 C-28.76241211 548.06930557 -29.43095215 548.19555313 -30.11975098 548.32562637 C-35.42279969 549.2797235 -40.70121662 549.77253117 -46.08605957 550.00946426 C-48.66177101 550.25821879 -50.87624491 550.66905084 -53.37121582 551.27899551 C-59.18139348 552.63279373 -65.02957008 552.97664333 -70.96887207 553.38055801 C-73.16044848 553.53572521 -75.35186276 553.69320304 -77.54309082 553.85321426 C-78.50175049 553.91903702 -79.46041016 553.98485977 -80.44812012 554.05267715 C-83.34680679 554.28453946 -83.34680679 554.28453946 -86.43933105 554.88202286 C-89.89832547 555.41271301 -92.2992457 554.81309312 -95.65637207 553.88055801 C-97.24578613 553.44936661 -97.24578613 553.44936661 -98.86730957 553.00946426 C-100.06227051 552.66721817 -100.06227051 552.66721817 -101.28137207 552.31805801 C-101.28137207 550.33805801 -101.28137207 548.35805801 -101.28137207 546.31805801 C-102.61168457 546.34899551 -102.61168457 546.34899551 -103.96887207 546.38055801 C-107.28137207 546.31805801 -107.28137207 546.31805801 -109.50402832 545.66962051 C-113.35521555 545.18212846 -116.44484564 546.38327189 -120.03137207 547.63055801 C-121.47341243 548.10135893 -122.91611704 548.5701304 -124.35949707 549.03680801 C-125.04463379 549.26110489 -125.72977051 549.48540176 -126.43566895 549.71649551 C-139.62105742 554.01395546 -153.65879175 552.51003379 -167.28137207 551.31805801 C-167.28137207 551.97805801 -167.28137207 552.63805801 -167.28137207 553.31805801 C-168.93137207 553.64805801 -170.58137207 553.97805801 -172.28137207 554.31805801 C-172.61137207 555.30805801 -172.94137207 556.29805801 -173.28137207 557.31805801 C-175.26137207 557.31805801 -177.24137207 557.31805801 -179.28137207 557.31805801 C-179.61137207 555.66805801 -179.94137207 554.01805801 -180.28137207 552.31805801 C-179.62137207 551.98805801 -178.96137207 551.65805801 -178.28137207 551.31805801 C-184.71637207 549.83305801 -184.71637207 549.83305801 -191.28137207 548.31805801 C-191.28137207 547.32805801 -191.28137207 546.33805801 -191.28137207 545.31805801 C-190.62137207 545.31805801 -189.96137207 545.31805801 -189.28137207 545.31805801 C-189.28137207 544.65805801 -189.28137207 543.99805801 -189.28137207 543.31805801 C-188.62137207 542.65805801 -187.96137207 541.99805801 -187.28137207 541.31805801 C-188.67355957 540.66837051 -188.67355957 540.66837051 -190.09387207 540.00555801 C-192.7532128 538.59767175 -194.36243112 537.55682245 -196.28137207 535.31805801 C-194.96137207 534.32805801 -193.64137207 533.33805801 -192.28137207 532.31805801 C-195.1278171 532.31805801 -197.83272213 532.37791565 -200.65637207 532.63055801 C-201.38598145 532.68856583 -202.11559082 532.74657364 -202.86730957 532.80633926 C-205.40621907 533.2274364 -205.40621907 533.2274364 -207.91809082 534.72821426 C-212.40459721 536.84901345 -216.85426145 537.59081369 -221.71887207 538.44305801 C-222.63475098 538.6119252 -223.55062988 538.78079239 -224.4942627 538.95477676 C-231.28121453 540.19231141 -238.01395231 541.27593751 -244.90637207 541.69305801 C-249.23475286 542.063558 -251.63359703 542.91820601 -255.28137207 545.31805801 C-257.4116493 545.88475312 -259.53713265 546.30798965 -261.70715332 546.69305801 C-264.49546348 547.30135324 -264.49546348 547.30135324 -267.83605957 548.77899551 C-273.11778311 550.8043227 -278.49966633 551.33616781 -284.09387207 551.94305801 C-285.18522461 552.06858047 -286.27657715 552.19410294 -287.40100098 552.32342911 C-295.10039436 553.17417218 -302.78948709 553.7521128 -310.53063965 554.02753067 C-313.68181662 554.14255516 -316.2696809 554.31416096 -319.28137207 555.31805801 C-330.65036958 556.94494471 -340.58744476 556.79146028 -351.28137207 552.31805801 C-351.28137207 551.65805801 -351.28137207 550.99805801 -351.28137207 550.31805801 C-354.58137207 550.64805801 -357.88137207 550.97805801 -361.28137207 551.31805801 C-361.28137207 550.65805801 -361.28137207 549.99805801 -361.28137207 549.31805801 C-362.52531738 549.58360489 -363.7692627 549.84915176 -365.05090332 550.12274551 C-369.35355368 551.0383412 -373.6589189 551.94036169 -377.96594238 552.83514786 C-379.78851669 553.21526721 -381.60947759 553.60312285 -383.42980957 553.99383926 C-390.12716469 555.34361391 -396.77130397 555.74509686 -403.58215332 556.07196426 C-406.89050174 556.29205502 -410.01780698 556.76201154 -413.28137207 557.31805801 C-422.75403308 558.16870717 -432.15651476 558.41119795 -441.66027832 558.25555801 C-445.28792063 558.31817104 -448.69712175 558.78290953 -452.28137207 559.31805801 C-454.09294417 559.37967611 -455.90642239 559.40538609 -457.71887207 559.38055801 C-458.58383301 559.37153458 -459.44879395 559.36251114 -460.33996582 559.35321426 C-461.30096191 559.33581192 -461.30096191 559.33581192 -462.28137207 559.31805801 C-461.95137207 558.65805801 -461.62137207 557.99805801 -461.28137207 557.31805801 C-463.13535905 557.00449371 -464.98957151 556.69226253 -466.84387207 556.38055801 C-467.87641113 556.20653458 -468.9089502 556.03251114 -469.97277832 555.85321426 C-471.06461426 555.6766127 -472.1564502 555.50001114 -473.28137207 555.31805801 C-474.40543457 555.13243301 -475.52949707 554.94680801 -476.68762207 554.75555801 C-480.56840047 554.28311543 -484.31087501 554.22097397 -488.21887207 554.25555801 C-489.24464355 554.26232559 -489.24464355 554.26232559 -490.2911377 554.26922989 C-491.95458811 554.28086241 -493.61799257 554.29879107 -495.28137207 554.31805801 C-495.28137207 553.65805801 -495.28137207 552.99805801 -495.28137207 552.31805801 C-496.25977051 552.61840958 -497.23816895 552.91876114 -498.24621582 553.22821426 C-505.47979036 555.36078878 -511.76979819 557.05268951 -519.28137207 555.31805801 C-524.97576812 554.13620223 -529.42095938 554.71633099 -535.05871582 555.77118301 C-540.10424398 556.62739385 -545.17906857 556.97428579 -550.28137207 557.31805801 C-550.28137207 556.65805801 -550.28137207 555.99805801 -550.28137207 555.31805801 C-548.63137207 554.65805801 -546.98137207 553.99805801 -545.28137207 553.31805801 C-549.90137207 553.31805801 -554.52137207 553.31805801 -559.28137207 553.31805801 C-560.47428815 510.32889708 -553.77389442 466.91920417 -543.28137207 425.31805801 C-542.98537109 424.1369545 -542.68937012 422.95585098 -542.38439941 421.73895645 C-529.59779497 371.46293962 -509.68750986 322.96914984 -483.28137207 278.31805801 C-482.45451904 276.90798477 -482.45451904 276.90798477 -481.61096191 275.4694252 C-464.07634196 245.66006552 -443.65402979 216.98684211 -420.24621582 191.46258926 C-418.45198776 189.50427673 -416.70441971 187.51579664 -414.96887207 185.50555801 C-407.2757309 176.70586914 -399.27958088 168.22306854 -391.03137207 159.94305801 C-390.38240967 159.28950333 -389.73344727 158.63594864 -389.06481934 157.96258926 C-385.2204011 154.13036623 -381.26045624 150.49064278 -377.15197754 146.9435463 C-374.53399359 144.66861323 -372.00678953 142.30704826 -369.46887207 139.94305801 C-363.92289622 134.83235142 -358.19854545 129.99574112 -352.28137207 125.31805801 C-351.31868408 124.55453018 -351.31868408 124.55453018 -350.33654785 123.77557755 C-328.35497866 106.38429215 -305.54329383 90.38341536 -281.28137207 76.31805801 C-280.68002441 75.96856094 -280.07867676 75.61906387 -279.45910645 75.25897598 C-215.73345915 38.39971167 -146.06561269 14.46230126 -73.15637207 4.50555801 C-72.43746796 4.40618942 -71.71856384 4.30682083 -70.97787476 4.20444107 C-47.36550238 0.98430977 -23.80981518 -0.06236351 0 0 Z M-386.59387207 542.75555801 C-389.8070957 543.85427319 -392.91942435 544.77580838 -396.28137207 545.31805801 C-396.28137207 545.64805801 -396.28137207 545.97805801 -396.28137207 546.31805801 C-394.36405289 546.20350121 -392.44750457 546.07599544 -390.53137207 545.94305801 C-389.46402832 545.87344864 -388.39668457 545.80383926 -387.29699707 545.73212051 C-384.47930775 545.34523571 -382.69833547 544.76119635 -380.28137207 543.31805801 C-380.28137207 542.65805801 -380.28137207 541.99805801 -380.28137207 541.31805801 C-382.6672381 541.31805801 -384.34306908 541.96493982 -386.59387207 542.75555801 Z M-402.28137207 546.31805801 C-402.28137207 546.64805801 -402.28137207 546.97805801 -402.28137207 547.31805801 C-400.30137207 547.31805801 -398.32137207 547.31805801 -396.28137207 547.31805801 C-396.28137207 546.98805801 -396.28137207 546.65805801 -396.28137207 546.31805801 C-398.26137207 546.31805801 -400.24137207 546.31805801 -402.28137207 546.31805801 Z M-543.28137207 549.31805801 C-539.28137207 550.31805801 -539.28137207 550.31805801 -539.28137207 550.31805801 Z M-538.28137207 552.31805801 C-538.28137207 552.64805801 -538.28137207 552.97805801 -538.28137207 553.31805801 C-534.98137207 553.31805801 -531.68137207 553.31805801 -528.28137207 553.31805801 C-528.28137207 552.98805801 -528.28137207 552.65805801 -528.28137207 552.31805801 C-531.58137207 552.31805801 -534.88137207 552.31805801 -538.28137207 552.31805801 Z M-520.28137207 552.31805801 C-520.28137207 552.64805801 -520.28137207 552.97805801 -520.28137207 553.31805801 C-517.97137207 553.31805801 -515.66137207 553.31805801 -513.28137207 553.31805801 C-513.28137207 552.98805801 -513.28137207 552.65805801 -513.28137207 552.31805801 C-515.59137207 552.31805801 -517.90137207 552.31805801 -520.28137207 552.31805801 Z " fill="#0D9A4C" transform="translate(559.2813720703125,-0.3180580139160156)"/>
</svg>
